<?xml version="1.0" standalone="no"?>
<!DOCTYPE svg PUBLIC "-//W3C//DTD SVG 20010904//EN"
 "http://www.w3.org/TR/2001/REC-SVG-20010904/DTD/svg10.dtd">
<svg version="1.0" xmlns="http://www.w3.org/2000/svg"
 width="512.000000pt" height="512.000000pt" viewBox="0 0 512.000000 512.000000"
 preserveAspectRatio="xMidYMid meet">

<g transform="translate(0.000000,512.000000) scale(0.100000,-0.100000)"
fill="#000000" stroke="none">
<path d="M0 2560 l0 -2560 2560 0 2560 0 0 2560 0 2560 -2560 0 -2560 0 0
-2560z m3260 1540 c85 -11 236 -38 335 -58 l180 -37 3 -204 c2 -191 1 -203
-15 -196 -54 20 -365 110 -468 135 -256 61 -433 79 -598 61 -423 -46 -706
-293 -832 -726 -48 -168 -59 -261 -60 -520 0 -268 15 -379 76 -553 242 -684
955 -884 1759 -491 78 38 144 69 146 69 2 0 4 -84 4 -186 l0 -185 -77 -36
c-268 -122 -520 -180 -830 -190 -373 -12 -667 54 -914 205 -175 106 -358 310
-457 508 -119 237 -181 580 -169 939 16 475 140 821 389 1082 214 224 471 347
828 399 140 20 501 12 700 -16z"/>
</g>
</svg>
